<svg xmlns="http://www.w3.org/2000/svg" viewBox="0 0 128 128">
  <g fill="none" stroke="#111" stroke-linecap="round" stroke-linejoin="round">
    <g transform="translate(-12.75 -10.37)">
    <path class="ink" d="M40 110 C62 78 84 46 122 34" stroke-width="2.8"/>
    <path class="ink" d="M46.09 101.18 Q45.67 98.79 44.68 97.23" stroke-width="1.35"/>
    <path class="ink" d="M46.09 101.18 Q48.47 100.74 50.28 101.13" stroke-width="1.35"/>
    <path class="ink" d="M48.22 98.12 Q47.51 93.92 45.77 91.17" stroke-width="1.35"/>
    <path class="ink" d="M48.22 98.12 Q52.42 97.37 55.59 98.06" stroke-width="1.35"/>
    <path class="ink" d="M50.37 95.08 Q49.41 89.27 47.04 85.44" stroke-width="1.35"/>
    <path class="ink" d="M50.37 95.08 Q56.18 94.07 60.57 95.06" stroke-width="1.35"/>
    <path class="ink" d="M52.53 92.06 Q51.39 84.77 48.45 79.97" stroke-width="1.35"/>
    <path class="ink" d="M52.53 92.06 Q59.81 90.85 65.3 92.12" stroke-width="1.35"/>
    <path class="ink" d="M54.71 89.06 Q53.43 80.43 50 74.71" stroke-width="1.35"/>
    <path class="ink" d="M54.71 89.06 Q63.34 87.7 69.81 89.26" stroke-width="1.35"/>
    <path class="ink" d="M56.92 86.09 Q55.55 76.23 51.7 69.68" stroke-width="1.35"/>
    <path class="ink" d="M56.92 86.09 Q66.77 84.63 74.14 86.49" stroke-width="1.35"/>
    <path class="ink" d="M59.14 83.15 Q57.75 72.18 53.55 64.86" stroke-width="1.35"/>
    <path class="ink" d="M59.14 83.15 Q70.1 81.66 78.26 83.8" stroke-width="1.35"/>
    <path class="ink" d="M61.4 80.25 Q60.03 68.3 55.57 60.27" stroke-width="1.35"/>
    <path class="ink" d="M61.4 80.25 Q73.34 78.77 82.19 81.22" stroke-width="1.35"/>
    <path class="ink" d="M63.69 77.38 Q62.4 64.57 57.75 55.92" stroke-width="1.35"/>
    <path class="ink" d="M63.69 77.38 Q76.48 75.98 85.91 78.73" stroke-width="1.35"/>
    <path class="ink" d="M66.01 74.56 Q64.86 61.03 60.09 51.83" stroke-width="1.35"/>
    <path class="ink" d="M66.01 74.56 Q79.53 73.29 89.43 76.34" stroke-width="1.35"/>
    <path class="ink" d="M68.37 71.78 Q67.41 57.67 62.6 47.99" stroke-width="1.35"/>
    <path class="ink" d="M68.37 71.78 Q82.47 70.7 92.74 74.05" stroke-width="1.35"/>
    <path class="ink" d="M70.77 69.06 Q70.04 54.5 65.28 44.44" stroke-width="1.35"/>
    <path class="ink" d="M70.77 69.06 Q85.32 68.21 95.83 71.86" stroke-width="1.35"/>
    <path class="ink" d="M73.21 66.39 Q72.77 51.53 68.11 41.18" stroke-width="1.35"/>
    <path class="ink" d="M73.21 66.39 Q88.07 65.81 98.71 69.75" stroke-width="1.35"/>
    <path class="ink" d="M75.7 63.78 Q75.58 48.77 71.1 38.22" stroke-width="1.35"/>
    <path class="ink" d="M75.7 63.78 Q90.71 63.52 101.37 67.73" stroke-width="1.35"/>
    <path class="ink" d="M78.24 61.23 Q78.46 46.22 74.23 35.57" stroke-width="1.35"/>
    <path class="ink" d="M78.24 61.23 Q93.25 61.32 103.81 65.76" stroke-width="1.35"/>
    <path class="ink" d="M80.84 58.75 Q81.42 43.89 77.48 33.25" stroke-width="1.35"/>
    <path class="ink" d="M80.84 58.75 Q95.7 59.2 106.04 63.86" stroke-width="1.35"/>
    <path class="ink" d="M83.49 56.34 Q84.43 41.79 80.85 31.25" stroke-width="1.35"/>
    <path class="ink" d="M83.49 56.34 Q98.04 57.15 108.07 61.99" stroke-width="1.35"/>
    <path class="ink" d="M86.2 54 Q87.5 39.91 84.3 29.6" stroke-width="1.35"/>
    <path class="ink" d="M86.2 54 Q100.3 55.18 109.89 60.14" stroke-width="1.35"/>
    <path class="ink" d="M88.97 51.74 Q90.61 38.26 87.83 28.28" stroke-width="1.35"/>
    <path class="ink" d="M88.97 51.74 Q102.46 53.27 111.53 58.28" stroke-width="1.35"/>
    <path class="ink" d="M91.81 49.57 Q93.75 36.85 91.4 27.31" stroke-width="1.35"/>
    <path class="ink" d="M91.81 49.57 Q104.55 51.4 113 56.41" stroke-width="1.35"/>
    <path class="ink" d="M94.72 47.48 Q96.91 35.65 95 26.67" stroke-width="1.35"/>
    <path class="ink" d="M94.72 47.48 Q106.57 49.57 114.31 54.5" stroke-width="1.35"/>
    <path class="ink" d="M97.7 45.48 Q100.07 34.68 98.59 26.38" stroke-width="1.35"/>
    <path class="ink" d="M97.7 45.48 Q108.52 47.76 115.49 52.52" stroke-width="1.35"/>
    <path class="ink" d="M100.76 43.58 Q103.22 33.93 102.14 26.41" stroke-width="1.35"/>
    <path class="ink" d="M100.76 43.58 Q110.43 45.96 116.55 50.46" stroke-width="1.35"/>
    <path class="ink" d="M103.89 41.77 Q106.35 33.4 105.63 26.77" stroke-width="1.35"/>
    <path class="ink" d="M103.89 41.77 Q112.29 44.16 117.52 48.29" stroke-width="1.35"/>
    <path class="ink" d="M107.11 40.07 Q109.44 33.07 109.04 27.46" stroke-width="1.35"/>
    <path class="ink" d="M107.11 40.07 Q114.13 42.34 118.42 45.99" stroke-width="1.35"/>
    <path class="ink" d="M110.41 38.48 Q112.48 32.96 112.32 28.46" stroke-width="1.35"/>
    <path class="ink" d="M110.41 38.48 Q115.95 40.49 119.27 43.53" stroke-width="1.35"/>
    <path class="ink" d="M113.81 36.99 Q115.45 33.06 115.46 29.81" stroke-width="1.35"/>
    <path class="ink" d="M113.81 36.99 Q117.75 38.6 120.06 40.88" stroke-width="1.35"/>
    <path class="ink" d="M117.29 35.62 Q118.31 33.42 118.38 31.57" stroke-width="1.35"/>
    <path class="ink" d="M117.29 35.62 Q119.5 36.62 120.76 37.97" stroke-width="1.35"/>
    <path class="nib" d="M37.86 108.53 L31.5 122.36 L42.14 111.47 Z"/>
    <path class="ink" d="M35.75 116.18 L31.5 122.36" stroke-width="1.6"/>
  </g>
  </g>
  <style>
    .ink { stroke: #111; }
    .nib { fill: #111; stroke: #111; stroke-width: 1; }
    @media (prefers-color-scheme: dark) {
      .ink { stroke: #f5f5f5; }
      .nib { fill: #f5f5f5; stroke: #f5f5f5; }
    }
  </style>
</svg>